<svg width="119" height="40" viewBox="0 0 119 40" fill="none" xmlns="http://www.w3.org/2000/svg">
    <path d="M37.1002 16.6631H40.1002L42.6152 22.0481L45.1302 16.6631H48.1302L43.3202 26.2181H41.9077L37.0977 16.6631H37.1002Z" fill="#1B1B1B"/>
    <path d="M49.2602 31.2706L52.7677 24.7831L48.2227 16.6631H51.3552L54.3127 22.0906L56.9602 16.6631H60.0052L52.3052 31.2706H49.2602Z" fill="#1B1B1B"/>
    <path d="M68.1953 17.8975V16.6625H70.8878V26.2175H68.1953V24.9825C67.4753 26.0125 66.4953 26.5275 65.2603 26.5275C63.8178 26.5275 62.6453 26.035 61.7403 25.05C60.8353 24.065 60.3828 22.8575 60.3828 21.43C60.3828 20.0025 60.8253 18.7825 61.7078 17.81C62.5903 16.84 63.7303 16.3525 65.1278 16.3525C66.5253 16.3525 67.5328 16.8675 68.1953 17.8975ZM67.7078 19.5075C67.2078 18.9925 66.5753 18.735 65.8103 18.735C65.0453 18.735 64.4128 18.9925 63.9128 19.5075C63.4128 20.0225 63.1628 20.6625 63.1628 21.4275C63.1628 22.1925 63.4128 22.835 63.9128 23.3575C64.4128 23.88 65.0453 24.14 65.8103 24.14C66.5753 24.14 67.2078 23.88 67.7078 23.3575C68.2078 22.835 68.4578 22.1925 68.4578 21.4275C68.4578 20.6625 68.2078 20.0225 67.7078 19.5075Z" fill="#1B1B1B"/>
    <path d="M80.7695 17.8984V10.1309H83.462V26.2159H80.7695V24.9809C80.0495 26.0109 79.0695 26.5259 77.8345 26.5259C76.392 26.5259 75.2195 26.0334 74.3145 25.0484C73.4095 24.0634 72.957 22.8559 72.957 21.4284C72.957 20.0009 73.3995 18.7809 74.282 17.8084C75.1645 16.8384 76.3045 16.3509 77.702 16.3509C79.0995 16.3509 80.107 16.8659 80.7695 17.8959V17.8984ZM80.2845 19.5084C79.7845 18.9934 79.152 18.7359 78.387 18.7359C77.622 18.7359 76.9895 18.9934 76.4895 19.5084C75.9895 20.0234 75.7395 20.6634 75.7395 21.4284C75.7395 22.1934 75.9895 22.8359 76.4895 23.3584C76.9895 23.8809 77.622 24.1409 78.387 24.1409C79.152 24.1409 79.7845 23.8809 80.2845 23.3584C80.7845 22.8359 81.0345 22.1934 81.0345 21.4284C81.0345 20.6634 80.7845 20.0234 80.2845 19.5084Z" fill="#1B1B1B"/>
    <path d="M91.0077 16.3525C92.6102 16.3525 93.8977 16.8025 94.8702 17.6975C95.9427 18.6675 96.4802 19.92 96.4802 21.4475C96.4802 22.975 95.9427 24.205 94.8702 25.1775C93.9002 26.075 92.6127 26.5225 91.0077 26.5225C89.4027 26.5225 88.1176 26.075 87.1451 25.1775C86.0701 24.2075 85.5352 22.965 85.5352 21.4475C85.5352 19.93 86.0726 18.6675 87.1451 17.6975C88.1151 16.8 89.4027 16.3525 91.0077 16.3525ZM89.0877 23.3475C89.6027 23.8775 90.2427 24.1425 91.0077 24.1425C91.7727 24.1425 92.4127 23.8775 92.9277 23.3475C93.4427 22.8175 93.7001 22.185 93.7001 21.45C93.7001 20.715 93.4427 20.06 92.9277 19.53C92.4127 19 91.7727 18.735 91.0077 18.735C90.2427 18.735 89.6027 19 89.0877 19.53C88.5727 20.06 88.3152 20.7 88.3152 21.45C88.3152 22.2 88.5727 22.8175 89.0877 23.3475Z" fill="#1B1B1B"/>
    <path d="M96.8775 16.6631H99.8775L102.393 22.0481L104.908 16.6631H107.908L103.098 26.2181H101.685L96.875 16.6631H96.8775Z" fill="#1B1B1B"/>
    <path d="M115.921 23.148L118.394 23.5455C118.291 23.8105 118.154 24.0705 117.986 24.328C117.816 24.5855 117.556 24.9005 117.204 25.278C116.851 25.653 116.374 25.9555 115.769 26.183C115.166 26.4105 114.474 26.5255 113.694 26.5255C112.194 26.5255 110.971 26.078 110.031 25.1805C109.031 24.2405 108.531 22.9955 108.531 21.4505C108.531 19.9055 109.016 18.6705 109.989 17.7005C110.901 16.803 112.099 16.3555 113.586 16.3555C115.204 16.3555 116.446 16.878 117.316 17.923C118.081 18.8355 118.464 20.0855 118.464 21.673V21.893H111.314C111.314 22.5405 111.469 23.078 111.776 23.503C112.219 24.1055 112.856 24.408 113.696 24.408C114.696 24.408 115.439 23.988 115.924 23.1505L115.921 23.148ZM111.396 20.1705H115.919C115.816 19.553 115.546 19.078 115.114 18.748C114.679 18.418 114.191 18.2505 113.646 18.2505C113.101 18.2505 112.634 18.4205 112.201 18.758C111.766 19.0955 111.499 19.568 111.396 20.1705Z" fill="#1B1B1B"/>
    <path d="M0.372722 0.108315C4.70522 4.84082 10.5077 6.31582 16.0477 8.36332C18.3477 9.25332 20.8877 10.3633 22.2352 12.8133C24.7127 17.9108 22.5977 23.2583 18.3627 25.9658C17.8777 26.2883 17.3727 26.5808 16.8827 26.8908C16.3777 27.2658 15.3152 27.6808 15.6002 28.5483C16.7752 30.5808 19.8852 31.2033 21.9152 30.9058C25.6827 30.2308 29.8352 25.8633 29.6652 21.3558C29.6102 20.2958 29.3552 19.2208 28.9502 18.2658C28.1727 16.4433 26.8802 14.9408 25.3177 13.9658C24.8377 13.6583 24.2377 13.4158 23.9302 12.9558C23.5227 12.3483 23.6427 11.5108 23.7877 10.8133C24.0802 9.43832 24.8402 8.22332 25.8127 7.45332C27.6227 5.94081 30.3877 5.95082 32.0602 7.86832C32.3452 8.17832 32.6002 8.52831 32.9227 8.77081C33.4302 9.16082 34.0902 9.27831 34.6377 9.58832C35.2852 9.94331 36.2852 10.7283 34.8527 10.8133C30.9027 11.2708 30.9927 14.6058 31.1127 18.2483C31.6452 27.2058 24.8552 34.2283 17.1777 31.4858C15.9727 31.1008 15.4202 31.6958 14.8127 32.7833C13.5552 34.9533 12.6752 37.5483 11.2152 39.5983C10.7127 40.1983 10.1377 39.9183 9.51022 39.5283C9.26522 39.3783 8.99772 39.2233 8.79522 39.0133C8.35522 38.5908 8.68522 38.1033 8.98272 37.7083C10.4502 35.6358 12.1027 33.6908 13.3977 31.4733C13.4977 31.2683 13.5452 31.1333 13.4152 31.2433C11.8602 32.9408 8.63022 36.6008 7.64522 37.6883C7.54522 37.7958 7.44522 37.8983 7.32272 37.9308C6.96522 37.9383 6.61772 37.5883 6.29772 37.3533C5.89522 37.0183 5.54772 36.6358 6.04272 36.1858C7.77772 34.5883 9.41772 32.8708 11.1977 31.3358C11.5102 31.0508 11.8677 30.7258 12.1102 30.3933C12.2277 30.2408 12.4377 29.8258 12.1377 29.8783C11.9677 29.9208 11.7352 30.1508 11.5677 30.2833C9.68772 31.8558 6.27022 34.7333 5.05522 35.7408C4.69522 36.0408 4.29522 35.6733 3.97522 35.4558C3.60522 35.1633 3.19272 34.8833 3.10772 34.4983C3.03772 34.1108 3.45772 33.8108 3.73522 33.5958C6.78022 31.3658 9.69272 28.9033 12.7027 26.6058C16.7227 23.4933 21.1977 23.6708 20.4177 16.5258C20.0852 13.6858 17.7502 11.9558 15.5227 11.1683C14.1727 10.6833 12.7427 10.4083 11.3752 10.0383C8.69772 9.29331 5.97772 8.17832 3.49272 6.75082C2.60522 6.19332 1.57022 5.71582 0.945222 4.80082C0.707722 4.43581 0.540222 3.97582 0.422722 3.53082C0.215222 2.77082 0.120222 1.95582 0.0477219 1.19082C0.00522188 0.820815 -0.124778 -0.179185 0.365222 0.103315L0.372722 0.108315ZM30.5252 9.65831C30.5377 8.81331 29.6902 8.23081 29.0402 8.63332C28.3302 9.02582 28.3102 10.2633 29.0077 10.6858C29.6577 11.1233 30.5377 10.5458 30.5252 9.68081V9.66082V9.65831Z" fill="#1B1B1B"/>
    <path d="M23.6594 29.1105C23.4569 28.9606 23.4194 28.6255 23.3619 28.368C23.1844 27.4705 22.9969 26.563 22.6719 25.7155C22.3694 25.003 22.0644 25.338 22.1269 25.9805C22.1494 26.2855 22.2419 26.588 22.3194 26.883C22.4444 27.363 22.5519 27.8105 22.6469 28.3155C22.7069 28.708 22.8244 29.158 22.6719 29.533C22.5169 29.918 21.8894 30.128 21.6169 29.8605C21.3819 29.6081 21.4194 29.213 21.3494 28.783C21.3144 28.5055 21.2694 28.228 21.2144 27.9555C21.1644 27.708 21.1119 27.4505 21.0319 27.268C20.8344 26.8155 20.4669 26.9405 20.3769 27.383C20.2944 27.703 20.3594 28.028 20.4144 28.3955C20.4469 28.6206 20.4744 28.8455 20.5069 29.0705C20.5494 29.5205 20.7119 30.018 20.4169 30.263C20.2519 30.383 19.9769 30.3855 19.7719 30.333C19.4444 30.2631 19.1669 30.008 19.1144 29.623C19.0194 29.2305 19.1419 28.413 18.7219 28.348C18.5019 28.3405 18.3794 28.7105 18.3319 28.9455C18.2819 29.143 18.2794 29.3405 18.1769 29.498C17.9744 29.738 17.6194 29.4381 17.2794 29.2355C16.7794 28.9005 16.0619 28.488 16.8769 27.893C17.2669 27.603 17.6819 27.3505 18.0794 27.0931C19.0919 26.4556 20.0994 25.7505 20.9369 24.8205C23.2719 22.268 24.6369 18.283 23.7919 14.6505C23.7019 13.933 24.1744 14.0955 24.5619 14.3305C25.2219 14.723 25.8144 15.263 26.3719 15.833C28.1719 17.673 29.1269 19.703 29.0344 22.483C29.0194 23.0005 28.9194 23.6055 28.4594 23.8005C28.1444 23.938 27.7844 23.9206 27.4494 23.923C26.4469 23.9156 25.4469 23.893 24.4469 23.8405C24.0719 23.8355 23.6469 23.7355 23.4419 23.9805C23.2694 24.288 23.6294 24.808 23.7469 25.103C24.0994 25.8455 24.4169 26.623 24.6594 27.423C24.7819 27.8656 24.8694 28.263 24.6869 28.613C24.4969 28.9655 24.0119 29.3005 23.6694 29.1155L23.6619 29.1105H23.6594ZM25.1294 16.4705C24.9294 16.583 24.9869 17.393 25.0169 17.633C25.0594 17.9855 25.2619 18.123 25.5494 18.1155C25.7919 18.113 26.0444 18.1255 26.2544 18.048C26.6194 17.8755 26.0469 17.318 25.9069 17.128C25.7219 16.938 25.3419 16.4255 25.1344 16.4705H25.1294ZM26.7769 19.3755C26.5069 19.303 26.1719 19.278 25.8669 19.293C25.4444 19.303 24.9094 19.2405 24.7344 19.7355C24.6794 20.028 24.9869 20.0555 25.1869 20.0555C25.6619 20.058 26.4544 20.0555 26.9719 20.0555C27.1194 20.053 27.2969 20.058 27.4219 19.9955C27.6619 19.8505 27.3019 19.628 27.1819 19.538C27.0669 19.463 26.9369 19.413 26.7869 19.3755H26.7769ZM27.7694 21.858C27.6194 21.663 27.3144 21.6555 27.0869 21.6505C26.5619 21.6405 26.0369 21.618 25.5119 21.5655C25.1594 21.5405 24.7869 21.418 24.4419 21.523C24.0694 21.6255 23.8194 22.128 24.2644 22.333C24.3769 22.383 24.5194 22.4056 24.6469 22.423C25.4019 22.5181 26.1644 22.5905 26.9269 22.603C27.1344 22.603 27.3669 22.6005 27.5494 22.5005C27.7769 22.383 27.9419 22.1005 27.7719 21.8655L27.7669 21.858H27.7694Z" fill="#1B1B1B"/>
    <path d="M1.61709 7.05818C1.74209 7.03068 2.07959 7.23568 2.26209 7.34068C5.57959 9.25068 9.10209 10.6732 12.7296 11.5857C14.1121 11.9507 15.4896 12.2932 16.8246 12.8507C17.2196 13.0007 17.8696 13.4407 17.0571 13.5557C16.4096 13.5982 15.7671 13.4882 15.1271 13.4682C11.4621 13.2457 7.45959 12.7882 3.91209 11.6032C3.61709 11.4757 3.35959 11.3107 3.12709 11.0632C2.57209 10.4907 2.31709 9.67568 1.98709 8.78318C1.84709 8.38818 1.69459 7.94068 1.58709 7.55068C1.53459 7.36568 1.47459 7.06068 1.60959 7.05818H1.61459H1.61709Z" fill="#1B1B1B"/>
    <path d="M18.1577 14.3284C18.2002 14.5009 17.8302 14.6184 17.7127 14.6759C14.1752 15.9234 10.1677 16.5384 6.4502 16.0084C5.7677 15.9034 5.3127 15.4259 4.9102 14.8259C4.5277 14.2459 4.1677 13.6459 3.9302 12.9809C3.8452 12.6709 3.9902 12.5859 4.3052 12.6459C6.3027 13.1609 8.3252 13.6234 10.3652 13.8709C11.8027 14.0459 13.2502 14.1784 14.6952 14.1909C15.6377 14.2034 16.5952 14.0634 17.5402 14.1284C17.7252 14.1384 18.1277 14.2059 18.1577 14.3234V14.3284Z" fill="#1B1B1B"/>
    <path d="M6.86257 17.0858C7.06757 16.9158 7.53757 16.9558 7.83257 16.9408C8.43257 16.9383 9.03257 16.9558 9.63007 16.9308C11.3726 16.8483 13.1151 16.6108 14.8201 16.2233C16.0226 15.9433 17.2126 15.5558 18.3526 15.0333C18.6201 14.9158 18.9401 14.7608 19.2076 14.8133C19.4551 14.8858 19.3851 15.1583 19.2351 15.3808C17.6976 17.2283 11.8526 19.5133 9.59257 19.5608C8.98007 19.5458 8.47507 19.0883 8.02757 18.6408C7.71007 18.3308 7.32507 17.9408 7.07007 17.6408C6.93257 17.4858 6.73507 17.1983 6.86007 17.0933V17.0883L6.86257 17.0858Z" fill="#1B1B1B"/>
    <path d="M19.7463 16.1201C19.9788 16.3726 19.6838 16.9651 19.4613 17.2226C19.0538 17.7226 18.5888 18.1601 18.1288 18.5951C16.8513 19.7701 15.4438 20.8851 14.0038 21.7651C13.8238 21.8601 13.6413 21.9251 13.4563 21.9451C12.9888 22.0001 12.5638 21.7576 12.1238 21.5276C11.8613 21.3876 11.6038 21.2401 11.3463 21.0926C11.0238 20.9051 10.2438 20.4976 10.8988 20.2226C13.7338 19.4051 16.5538 18.2951 18.9588 16.3426C19.1713 16.1751 19.5513 15.9226 19.7388 16.1176L19.7438 16.1226L19.7463 16.1201Z" fill="#1B1B1B"/>
    <path d="M14.8423 22.3953C14.8148 22.2378 15.0248 22.0952 15.1473 21.9977C16.5323 21.0552 17.8973 19.8577 19.0723 18.5802C19.2173 18.4402 19.4148 18.2002 19.5873 18.3677C19.7523 18.5977 19.7323 19.0777 19.7073 19.4027C19.5673 21.1677 18.2873 22.5352 16.7573 22.7202C16.3923 22.7952 15.0198 22.7802 14.8448 22.4002V22.3953H14.8423Z" fill="#1B1B1B"/>
    <path d="M26.9766 26.868C26.6991 27.153 25.7916 28.203 25.4166 28.0205C25.1066 27.8655 24.9891 27.008 24.8316 26.583C24.6891 26.138 24.5116 25.6805 24.3316 25.263C24.1966 24.9305 24.0266 24.603 24.4691 24.6055C25.3966 24.6055 27.0191 24.6155 27.9391 24.6305C28.0666 24.6405 28.2266 24.648 28.2691 24.7805C28.3291 25.198 27.2691 26.533 26.9841 26.8605L26.9766 26.8705V26.868Z" fill="#1B1B1B"/>
</svg>
